<?xml version="1.0" encoding="UTF-8" standalone="no"?>
<!DOCTYPE svg PUBLIC "-//W3C//DTD SVG 1.1//EN"
 "http://www.w3.org/Graphics/SVG/1.1/DTD/svg11.dtd">
<!-- Generated by graphviz version 2.47.0 (20210316.0004)
 -->
<!-- Title: dependencies Pages: 1 -->
<svg width="1134pt" height="211pt"
 viewBox="0.00 0.00 1134.00 211.00" xmlns="http://www.w3.org/2000/svg" xmlns:xlink="http://www.w3.org/1999/xlink">
<g id="graph0" class="graph" transform="scale(1 1) rotate(0) translate(4 207)">
<title>dependencies</title>
<polygon fill="white" stroke="transparent" points="-4,4 -4,-207 1130,-207 1130,4 -4,4"/>
<text text-anchor="start" x="542.01" y="-42.4" font-family="Times-12" font-weight="bold" font-size="14.00">Legend</text>
<polygon fill="#ffffb3" stroke="transparent" points="329,-10 329,-30 349,-30 349,-10 329,-10"/>
<text text-anchor="start" x="352.63" y="-15.4" font-family="Times-12" font-size="14.00"> &#160;Declarations</text>
<polygon fill="#8dd3c7" stroke="transparent" points="442,-10 442,-30 462,-30 462,-10 442,-10"/>
<text text-anchor="start" x="465.73" y="-15.4" font-family="Times-12" font-size="14.00"> &#160;Module</text>
<polygon fill="#80b1d3" stroke="transparent" points="528,-10 528,-30 548,-30 548,-10 528,-10"/>
<text text-anchor="start" x="551.78" y="-15.4" font-family="Times-12" font-size="14.00"> &#160;Bootstrap</text>
<polygon fill="#fdb462" stroke="transparent" points="625,-10 625,-30 645,-30 645,-10 625,-10"/>
<text text-anchor="start" x="648.67" y="-15.4" font-family="Times-12" font-size="14.00"> &#160;Providers</text>
<polygon fill="#fb8072" stroke="transparent" points="721,-10 721,-30 741,-30 741,-10 721,-10"/>
<text text-anchor="start" x="744.73" y="-15.4" font-family="Times-12" font-size="14.00"> &#160;Exports</text>
<g id="clust1" class="cluster">
<title>cluster_TasksModule</title>
<polygon fill="none" stroke="black" stroke-dasharray="1,5" points="8,-70 8,-195 1118,-195 1118,-70 8,-70"/>
</g>
<g id="clust8" class="cluster">
<title>cluster_TasksModule_imports</title>
<polygon fill="none" stroke="black" points="956,-78 956,-130 1110,-130 1110,-78 956,-78"/>
</g>
<g id="clust11" class="cluster">
<title>cluster_TasksModule_providers</title>
<polygon fill="none" stroke="black" points="730,-78 730,-130 948,-130 948,-78 730,-78"/>
</g>
<g id="clust2" class="cluster">
<title>cluster_TasksModule_declarations</title>
<polygon fill="none" stroke="black" points="16,-78 16,-130 722,-130 722,-78 16,-78"/>
</g>
<!-- DateFormatPipe -->
<g id="node1" class="node">
<title>DateFormatPipe</title>
<polygon fill="#ffffb3" stroke="black" points="713.75,-122 606.25,-122 606.25,-86 713.75,-86 713.75,-122"/>
<text text-anchor="middle" x="660" y="-99.8" font-family="Times,serif" font-size="14.00">DateFormatPipe</text>
</g>
<!-- TasksModule -->
<g id="node6" class="node">
<title>TasksModule</title>
<polygon fill="#8dd3c7" stroke="black" points="565.21,-187 562.21,-191 541.21,-191 538.21,-187 472.79,-187 472.79,-151 565.21,-151 565.21,-187"/>
<text text-anchor="middle" x="519" y="-164.8" font-family="Times,serif" font-size="14.00">TasksModule</text>
</g>
<!-- DateFormatPipe&#45;&gt;TasksModule -->
<g id="edge1" class="edge">
<title>DateFormatPipe&#45;&gt;TasksModule</title>
<path fill="none" stroke="black" d="M660,-122.03C660,-138.4 660,-160 660,-160 660,-160 575.17,-160 575.17,-160"/>
<polygon fill="black" stroke="black" points="575.17,-156.5 565.17,-160 575.17,-163.5 575.17,-156.5"/>
</g>
<!-- MainTaskComponent -->
<g id="node2" class="node">
<title>MainTaskComponent</title>
<polygon fill="#ffffb3" stroke="black" points="588.09,-122 449.91,-122 449.91,-86 588.09,-86 588.09,-122"/>
<text text-anchor="middle" x="519" y="-99.8" font-family="Times,serif" font-size="14.00">MainTaskComponent</text>
</g>
<!-- MainTaskComponent&#45;&gt;TasksModule -->
<g id="edge2" class="edge">
<title>MainTaskComponent&#45;&gt;TasksModule</title>
<path fill="none" stroke="black" d="M519,-122.11C519,-122.11 519,-140.99 519,-140.99"/>
<polygon fill="black" stroke="black" points="515.5,-140.99 519,-150.99 522.5,-140.99 515.5,-140.99"/>
</g>
<!-- StatusColorDirective -->
<g id="node3" class="node">
<title>StatusColorDirective</title>
<polygon fill="#ffffb3" stroke="black" points="432.19,-122 297.81,-122 297.81,-86 432.19,-86 432.19,-122"/>
<text text-anchor="middle" x="365" y="-99.8" font-family="Times,serif" font-size="14.00">StatusColorDirective</text>
</g>
<!-- StatusColorDirective&#45;&gt;TasksModule -->
<g id="edge3" class="edge">
<title>StatusColorDirective&#45;&gt;TasksModule</title>
<path fill="none" stroke="black" d="M365,-122.03C365,-138.4 365,-160 365,-160 365,-160 462.79,-160 462.79,-160"/>
<polygon fill="black" stroke="black" points="462.79,-163.5 472.79,-160 462.79,-156.5 462.79,-163.5"/>
</g>
<!-- TaskComponent -->
<g id="node4" class="node">
<title>TaskComponent</title>
<polygon fill="#ffffb3" stroke="black" points="280.05,-122 171.95,-122 171.95,-86 280.05,-86 280.05,-122"/>
<text text-anchor="middle" x="226" y="-99.8" font-family="Times,serif" font-size="14.00">TaskComponent</text>
</g>
<!-- TaskComponent&#45;&gt;TasksModule -->
<g id="edge4" class="edge">
<title>TaskComponent&#45;&gt;TasksModule</title>
<path fill="none" stroke="black" d="M226,-122.11C226,-141.34 226,-169 226,-169 226,-169 462.9,-169 462.9,-169"/>
<polygon fill="black" stroke="black" points="462.9,-172.5 472.9,-169 462.9,-165.5 462.9,-172.5"/>
</g>
<!-- TaskListComponent -->
<g id="node5" class="node">
<title>TaskListComponent</title>
<polygon fill="#ffffb3" stroke="black" points="154.32,-122 23.68,-122 23.68,-86 154.32,-86 154.32,-122"/>
<text text-anchor="middle" x="89" y="-99.8" font-family="Times,serif" font-size="14.00">TaskListComponent</text>
</g>
<!-- TaskListComponent&#45;&gt;TasksModule -->
<g id="edge5" class="edge">
<title>TaskListComponent&#45;&gt;TasksModule</title>
<path fill="none" stroke="black" d="M89,-122.29C89,-144.21 89,-178 89,-178 89,-178 462.57,-178 462.57,-178"/>
<polygon fill="black" stroke="black" points="462.57,-181.5 472.57,-178 462.57,-174.5 462.57,-181.5"/>
</g>
<!-- TasksRoutingModule -->
<g id="node7" class="node">
<title>TasksRoutingModule</title>
<polygon fill="#8dd3c7" stroke="black" points="1101.82,-122 1098.82,-126 1077.82,-126 1074.82,-122 964.18,-122 964.18,-86 1101.82,-86 1101.82,-122"/>
<text text-anchor="middle" x="1033" y="-99.8" font-family="Times,serif" font-size="14.00">TasksRoutingModule</text>
</g>
<!-- TasksRoutingModule&#45;&gt;TasksModule -->
<g id="edge6" class="edge">
<title>TasksRoutingModule&#45;&gt;TasksModule</title>
<path fill="none" stroke="black" d="M1033,-122.29C1033,-144.21 1033,-178 1033,-178 1033,-178 575.52,-178 575.52,-178"/>
<polygon fill="black" stroke="black" points="575.52,-174.5 565.52,-178 575.52,-181.5 575.52,-174.5"/>
</g>
<!-- CRUDTaskListService -->
<g id="node8" class="node">
<title>CRUDTaskListService</title>
<ellipse fill="#fdb462" stroke="black" cx="839" cy="-104" rx="100.72" ry="18"/>
<text text-anchor="middle" x="839" y="-99.8" font-family="Times,serif" font-size="14.00">CRUDTaskListService</text>
</g>
<!-- CRUDTaskListService&#45;&gt;TasksModule -->
<g id="edge7" class="edge">
<title>CRUDTaskListService&#45;&gt;TasksModule</title>
<path fill="none" stroke="black" d="M839,-122.11C839,-141.34 839,-169 839,-169 839,-169 575.19,-169 575.19,-169"/>
<polygon fill="black" stroke="black" points="575.19,-165.5 565.19,-169 575.19,-172.5 575.19,-165.5"/>
</g>
</g>
</svg>
