<?xml version="1.0" encoding="UTF-8" standalone="no"?>
<!DOCTYPE svg PUBLIC "-//W3C//DTD SVG 1.1//EN"
 "http://www.w3.org/Graphics/SVG/1.1/DTD/svg11.dtd">
<!-- Generated by graphviz version 2.47.0 (20210316.0004)
 -->
<!-- Title: dependencies Pages: 1 -->
<svg width="1022pt" height="284pt"
 viewBox="0.00 0.00 1022.00 284.00" xmlns="http://www.w3.org/2000/svg" xmlns:xlink="http://www.w3.org/1999/xlink">
<g id="graph0" class="graph" transform="scale(1 1) rotate(0) translate(4 280)">
<title>dependencies</title>
<polygon fill="white" stroke="transparent" points="-4,4 -4,-280 1018,-280 1018,4 -4,4"/>
<text text-anchor="start" x="486.01" y="-42.4" font-family="Times-12" font-weight="bold" font-size="14.00">Legend</text>
<polygon fill="#ffffb3" stroke="transparent" points="273,-10 273,-30 293,-30 293,-10 273,-10"/>
<text text-anchor="start" x="296.63" y="-15.4" font-family="Times-12" font-size="14.00"> &#160;Declarations</text>
<polygon fill="#8dd3c7" stroke="transparent" points="386,-10 386,-30 406,-30 406,-10 386,-10"/>
<text text-anchor="start" x="409.73" y="-15.4" font-family="Times-12" font-size="14.00"> &#160;Module</text>
<polygon fill="#80b1d3" stroke="transparent" points="472,-10 472,-30 492,-30 492,-10 472,-10"/>
<text text-anchor="start" x="495.78" y="-15.4" font-family="Times-12" font-size="14.00"> &#160;Bootstrap</text>
<polygon fill="#fdb462" stroke="transparent" points="569,-10 569,-30 589,-30 589,-10 569,-10"/>
<text text-anchor="start" x="592.67" y="-15.4" font-family="Times-12" font-size="14.00"> &#160;Providers</text>
<polygon fill="#fb8072" stroke="transparent" points="665,-10 665,-30 685,-30 685,-10 665,-10"/>
<text text-anchor="start" x="688.73" y="-15.4" font-family="Times-12" font-size="14.00"> &#160;Exports</text>
<g id="clust1" class="cluster">
<title>cluster_AppModule</title>
<polygon fill="none" stroke="black" stroke-dasharray="1,5" points="8,-70 8,-268 1006,-268 1006,-70 8,-70"/>
</g>
<g id="clust9" class="cluster">
<title>cluster_AppModule_imports</title>
<polygon fill="none" stroke="black" points="854,-78 854,-130 998,-130 998,-78 854,-78"/>
</g>
<g id="clust11" class="cluster">
<title>cluster_AppModule_bootstrap</title>
<polygon fill="none" stroke="black" points="457,-208 457,-260 581,-260 581,-208 457,-208"/>
</g>
<g id="clust2" class="cluster">
<title>cluster_AppModule_declarations</title>
<polygon fill="none" stroke="black" points="16,-78 16,-130 846,-130 846,-78 16,-78"/>
</g>
<!-- AppComponent -->
<g id="node1" class="node">
<title>AppComponent</title>
<polygon fill="#ffffb3" stroke="black" points="837.94,-122 732.06,-122 732.06,-86 837.94,-86 837.94,-122"/>
<text text-anchor="middle" x="785" y="-99.8" font-family="Times,serif" font-size="14.00">AppComponent</text>
</g>
<!-- AppModule -->
<g id="node7" class="node">
<title>AppModule</title>
<polygon fill="#8dd3c7" stroke="black" points="560.66,-187 557.66,-191 536.66,-191 533.66,-187 477.34,-187 477.34,-151 560.66,-151 560.66,-187"/>
<text text-anchor="middle" x="519" y="-164.8" font-family="Times,serif" font-size="14.00">AppModule</text>
</g>
<!-- AppComponent&#45;&gt;AppModule -->
<g id="edge1" class="edge">
<title>AppComponent&#45;&gt;AppModule</title>
<path fill="none" stroke="black" d="M785,-122.11C785,-141.34 785,-169 785,-169 785,-169 570.86,-169 570.86,-169"/>
<polygon fill="black" stroke="black" points="570.86,-165.5 560.86,-169 570.86,-172.5 570.86,-165.5"/>
</g>
<!-- DateFormatPipe -->
<g id="node2" class="node">
<title>DateFormatPipe</title>
<polygon fill="#ffffb3" stroke="black" points="713.75,-122 606.25,-122 606.25,-86 713.75,-86 713.75,-122"/>
<text text-anchor="middle" x="660" y="-99.8" font-family="Times,serif" font-size="14.00">DateFormatPipe</text>
</g>
<!-- DateFormatPipe&#45;&gt;AppModule -->
<g id="edge2" class="edge">
<title>DateFormatPipe&#45;&gt;AppModule</title>
<path fill="none" stroke="black" d="M660,-122.03C660,-138.4 660,-160 660,-160 660,-160 570.92,-160 570.92,-160"/>
<polygon fill="black" stroke="black" points="570.92,-156.5 560.92,-160 570.92,-163.5 570.92,-156.5"/>
</g>
<!-- MainTaskComponent -->
<g id="node3" class="node">
<title>MainTaskComponent</title>
<polygon fill="#ffffb3" stroke="black" points="588.09,-122 449.91,-122 449.91,-86 588.09,-86 588.09,-122"/>
<text text-anchor="middle" x="519" y="-99.8" font-family="Times,serif" font-size="14.00">MainTaskComponent</text>
</g>
<!-- MainTaskComponent&#45;&gt;AppModule -->
<g id="edge3" class="edge">
<title>MainTaskComponent&#45;&gt;AppModule</title>
<path fill="none" stroke="black" d="M519,-122.11C519,-122.11 519,-140.99 519,-140.99"/>
<polygon fill="black" stroke="black" points="515.5,-140.99 519,-150.99 522.5,-140.99 515.5,-140.99"/>
</g>
<!-- StatusColorDirective -->
<g id="node4" class="node">
<title>StatusColorDirective</title>
<polygon fill="#ffffb3" stroke="black" points="432.19,-122 297.81,-122 297.81,-86 432.19,-86 432.19,-122"/>
<text text-anchor="middle" x="365" y="-99.8" font-family="Times,serif" font-size="14.00">StatusColorDirective</text>
</g>
<!-- StatusColorDirective&#45;&gt;AppModule -->
<g id="edge4" class="edge">
<title>StatusColorDirective&#45;&gt;AppModule</title>
<path fill="none" stroke="black" d="M365,-122.03C365,-138.4 365,-160 365,-160 365,-160 467.33,-160 467.33,-160"/>
<polygon fill="black" stroke="black" points="467.33,-163.5 477.33,-160 467.33,-156.5 467.33,-163.5"/>
</g>
<!-- TaskComponent -->
<g id="node5" class="node">
<title>TaskComponent</title>
<polygon fill="#ffffb3" stroke="black" points="280.05,-122 171.95,-122 171.95,-86 280.05,-86 280.05,-122"/>
<text text-anchor="middle" x="226" y="-99.8" font-family="Times,serif" font-size="14.00">TaskComponent</text>
</g>
<!-- TaskComponent&#45;&gt;AppModule -->
<g id="edge5" class="edge">
<title>TaskComponent&#45;&gt;AppModule</title>
<path fill="none" stroke="black" d="M226,-122.11C226,-141.34 226,-169 226,-169 226,-169 467.33,-169 467.33,-169"/>
<polygon fill="black" stroke="black" points="467.33,-172.5 477.33,-169 467.33,-165.5 467.33,-172.5"/>
</g>
<!-- TaskListComponent -->
<g id="node6" class="node">
<title>TaskListComponent</title>
<polygon fill="#ffffb3" stroke="black" points="154.32,-122 23.68,-122 23.68,-86 154.32,-86 154.32,-122"/>
<text text-anchor="middle" x="89" y="-99.8" font-family="Times,serif" font-size="14.00">TaskListComponent</text>
</g>
<!-- TaskListComponent&#45;&gt;AppModule -->
<g id="edge6" class="edge">
<title>TaskListComponent&#45;&gt;AppModule</title>
<path fill="none" stroke="black" d="M89,-122.29C89,-144.21 89,-178 89,-178 89,-178 466.99,-178 466.99,-178"/>
<polygon fill="black" stroke="black" points="466.99,-181.5 476.99,-178 466.99,-174.5 466.99,-181.5"/>
</g>
<!-- AppComponent  -->
<g id="node9" class="node">
<title>AppComponent </title>
<polygon fill="#80b1d3" stroke="black" points="573.44,-252 464.56,-252 464.56,-216 573.44,-216 573.44,-252"/>
<text text-anchor="middle" x="519" y="-229.8" font-family="Times,serif" font-size="14.00">AppComponent </text>
</g>
<!-- AppModule&#45;&gt;AppComponent  -->
<g id="edge8" class="edge">
<title>AppModule&#45;&gt;AppComponent </title>
<path fill="none" stroke="black" stroke-dasharray="1,5" d="M519,-187.11C519,-187.11 519,-205.99 519,-205.99"/>
<polygon fill="black" stroke="black" points="515.5,-205.99 519,-215.99 522.5,-205.99 515.5,-205.99"/>
</g>
<!-- AppRoutingModule -->
<g id="node8" class="node">
<title>AppRoutingModule</title>
<polygon fill="#8dd3c7" stroke="black" points="990.27,-122 987.27,-126 966.27,-126 963.27,-122 861.73,-122 861.73,-86 990.27,-86 990.27,-122"/>
<text text-anchor="middle" x="926" y="-99.8" font-family="Times,serif" font-size="14.00">AppRoutingModule</text>
</g>
<!-- AppRoutingModule&#45;&gt;AppModule -->
<g id="edge7" class="edge">
<title>AppRoutingModule&#45;&gt;AppModule</title>
<path fill="none" stroke="black" d="M926,-122.29C926,-144.21 926,-178 926,-178 926,-178 571.02,-178 571.02,-178"/>
<polygon fill="black" stroke="black" points="571.02,-174.5 561.02,-178 571.02,-181.5 571.02,-174.5"/>
</g>
</g>
</svg>
