<?xml version="1.0" encoding="UTF-8" standalone="no"?>
<!DOCTYPE svg PUBLIC "-//W3C//DTD SVG 1.1//EN"
 "http://www.w3.org/Graphics/SVG/1.1/DTD/svg11.dtd">
<!-- Generated by graphviz version 2.47.0 (20210316.0004)
 -->
<!-- Title: dependencies Pages: 1 -->
<svg width="1022pt" height="284pt"
 viewBox="0.00 0.00 1022.00 284.00" xmlns="http://www.w3.org/2000/svg" xmlns:xlink="http://www.w3.org/1999/xlink">
<g id="graph0" class="graph" transform="scale(1 1) rotate(0) translate(4 280)">
<title>dependencies</title>
<polygon fill="white" stroke="transparent" points="-4,4 -4,-280 1018,-280 1018,4 -4,4"/>
<text text-anchor="start" x="486.01" y="-42.4" font-family="Times-12" font-weight="bold" font-size="14.00">Legend</text>
<polygon fill="#ffffb3" stroke="transparent" points="273,-10 273,-30 293,-30 293,-10 273,-10"/>
<text text-anchor="start" x="296.63" y="-15.4" font-family="Times-12" font-size="14.00"> &#160;Declarations</text>
<polygon fill="#8dd3c7" stroke="transparent" points="386,-10 386,-30 406,-30 406,-10 386,-10"/>
<text text-anchor="start" x="409.73" y="-15.4" font-family="Times-12" font-size="14.00"> &#160;Module</text>
<polygon fill="#80b1d3" stroke="transparent" points="472,-10 472,-30 492,-30 492,-10 472,-10"/>
<text text-anchor="start" x="495.78" y="-15.4" font-family="Times-12" font-size="14.00"> &#160;Bootstrap</text>
<polygon fill="#fdb462" stroke="transparent" points="569,-10 569,-30 589,-30 589,-10 569,-10"/>
<text text-anchor="start" x="592.67" y="-15.4" font-family="Times-12" font-size="14.00"> &#160;Providers</text>
<polygon fill="#fb8072" stroke="transparent" points="665,-10 665,-30 685,-30 685,-10 665,-10"/>
<text text-anchor="start" x="688.73" y="-15.4" font-family="Times-12" font-size="14.00"> &#160;Exports</text>
<g id="clust1" class="cluster">
<title>cluster_AppModule</title>
<polygon fill="none" stroke="black" stroke-dasharray="1,5" points="8,-70 8,-268 1006,-268 1006,-70 8,-70"/>
</g>
<g id="clust2" class="cluster">
<title>cluster_AppModule_declarations</title>
<polygon fill="none" stroke="black" points="168,-78 168,-130 998,-130 998,-78 168,-78"/>
</g>
<g id="clust9" class="cluster">
<title>cluster_AppModule_imports</title>
<polygon fill="none" stroke="black" points="16,-78 16,-130 160,-130 160,-78 16,-78"/>
</g>
<g id="clust11" class="cluster">
<title>cluster_AppModule_bootstrap</title>
<polygon fill="none" stroke="black" points="455,-208 455,-260 579,-260 579,-208 455,-208"/>
</g>
<!-- AppComponent -->
<g id="node1" class="node">
<title>AppComponent</title>
<polygon fill="#ffffb3" stroke="black" points="989.94,-122 884.06,-122 884.06,-86 989.94,-86 989.94,-122"/>
<text text-anchor="middle" x="937" y="-99.8" font-family="Times,serif" font-size="14.00">AppComponent</text>
</g>
<!-- AppModule -->
<g id="node7" class="node">
<title>AppModule</title>
<polygon fill="#8dd3c7" stroke="black" points="558.66,-187 555.66,-191 534.66,-191 531.66,-187 475.34,-187 475.34,-151 558.66,-151 558.66,-187"/>
<text text-anchor="middle" x="517" y="-164.8" font-family="Times,serif" font-size="14.00">AppModule</text>
</g>
<!-- AppComponent&#45;&gt;AppModule -->
<g id="edge1" class="edge">
<title>AppComponent&#45;&gt;AppModule</title>
<path fill="none" stroke="black" d="M937,-122.29C937,-144.21 937,-178 937,-178 937,-178 568.81,-178 568.81,-178"/>
<polygon fill="black" stroke="black" points="568.81,-174.5 558.81,-178 568.81,-181.5 568.81,-174.5"/>
</g>
<!-- DateFormatPipe -->
<g id="node2" class="node">
<title>DateFormatPipe</title>
<polygon fill="#ffffb3" stroke="black" points="865.75,-122 758.25,-122 758.25,-86 865.75,-86 865.75,-122"/>
<text text-anchor="middle" x="812" y="-99.8" font-family="Times,serif" font-size="14.00">DateFormatPipe</text>
</g>
<!-- DateFormatPipe&#45;&gt;AppModule -->
<g id="edge2" class="edge">
<title>DateFormatPipe&#45;&gt;AppModule</title>
<path fill="none" stroke="black" d="M812,-122.11C812,-141.34 812,-169 812,-169 812,-169 568.95,-169 568.95,-169"/>
<polygon fill="black" stroke="black" points="568.95,-165.5 558.95,-169 568.95,-172.5 568.95,-165.5"/>
</g>
<!-- MainTaskComponent -->
<g id="node3" class="node">
<title>MainTaskComponent</title>
<polygon fill="#ffffb3" stroke="black" points="740.09,-122 601.91,-122 601.91,-86 740.09,-86 740.09,-122"/>
<text text-anchor="middle" x="671" y="-99.8" font-family="Times,serif" font-size="14.00">MainTaskComponent</text>
</g>
<!-- MainTaskComponent&#45;&gt;AppModule -->
<g id="edge3" class="edge">
<title>MainTaskComponent&#45;&gt;AppModule</title>
<path fill="none" stroke="black" d="M671,-122.03C671,-138.4 671,-160 671,-160 671,-160 568.67,-160 568.67,-160"/>
<polygon fill="black" stroke="black" points="568.67,-156.5 558.67,-160 568.67,-163.5 568.67,-156.5"/>
</g>
<!-- StatusColorDirective -->
<g id="node4" class="node">
<title>StatusColorDirective</title>
<polygon fill="#ffffb3" stroke="black" points="584.19,-122 449.81,-122 449.81,-86 584.19,-86 584.19,-122"/>
<text text-anchor="middle" x="517" y="-99.8" font-family="Times,serif" font-size="14.00">StatusColorDirective</text>
</g>
<!-- StatusColorDirective&#45;&gt;AppModule -->
<g id="edge4" class="edge">
<title>StatusColorDirective&#45;&gt;AppModule</title>
<path fill="none" stroke="black" d="M517,-122.11C517,-122.11 517,-140.99 517,-140.99"/>
<polygon fill="black" stroke="black" points="513.5,-140.99 517,-150.99 520.5,-140.99 513.5,-140.99"/>
</g>
<!-- TaskComponent -->
<g id="node5" class="node">
<title>TaskComponent</title>
<polygon fill="#ffffb3" stroke="black" points="432.05,-122 323.95,-122 323.95,-86 432.05,-86 432.05,-122"/>
<text text-anchor="middle" x="378" y="-99.8" font-family="Times,serif" font-size="14.00">TaskComponent</text>
</g>
<!-- TaskComponent&#45;&gt;AppModule -->
<g id="edge5" class="edge">
<title>TaskComponent&#45;&gt;AppModule</title>
<path fill="none" stroke="black" d="M378,-122.03C378,-138.4 378,-160 378,-160 378,-160 465.3,-160 465.3,-160"/>
<polygon fill="black" stroke="black" points="465.3,-163.5 475.3,-160 465.3,-156.5 465.3,-163.5"/>
</g>
<!-- TaskListComponent -->
<g id="node6" class="node">
<title>TaskListComponent</title>
<polygon fill="#ffffb3" stroke="black" points="306.32,-122 175.68,-122 175.68,-86 306.32,-86 306.32,-122"/>
<text text-anchor="middle" x="241" y="-99.8" font-family="Times,serif" font-size="14.00">TaskListComponent</text>
</g>
<!-- TaskListComponent&#45;&gt;AppModule -->
<g id="edge6" class="edge">
<title>TaskListComponent&#45;&gt;AppModule</title>
<path fill="none" stroke="black" d="M241,-122.11C241,-141.34 241,-169 241,-169 241,-169 465.08,-169 465.08,-169"/>
<polygon fill="black" stroke="black" points="465.08,-172.5 475.08,-169 465.08,-165.5 465.08,-172.5"/>
</g>
<!-- AppComponent  -->
<g id="node9" class="node">
<title>AppComponent </title>
<polygon fill="#80b1d3" stroke="black" points="571.44,-252 462.56,-252 462.56,-216 571.44,-216 571.44,-252"/>
<text text-anchor="middle" x="517" y="-229.8" font-family="Times,serif" font-size="14.00">AppComponent </text>
</g>
<!-- AppModule&#45;&gt;AppComponent  -->
<g id="edge8" class="edge">
<title>AppModule&#45;&gt;AppComponent </title>
<path fill="none" stroke="black" stroke-dasharray="1,5" d="M517,-187.11C517,-187.11 517,-205.99 517,-205.99"/>
<polygon fill="black" stroke="black" points="513.5,-205.99 517,-215.99 520.5,-205.99 513.5,-205.99"/>
</g>
<!-- AppRoutingModule -->
<g id="node8" class="node">
<title>AppRoutingModule</title>
<polygon fill="#8dd3c7" stroke="black" points="152.27,-122 149.27,-126 128.27,-126 125.27,-122 23.73,-122 23.73,-86 152.27,-86 152.27,-122"/>
<text text-anchor="middle" x="88" y="-99.8" font-family="Times,serif" font-size="14.00">AppRoutingModule</text>
</g>
<!-- AppRoutingModule&#45;&gt;AppModule -->
<g id="edge7" class="edge">
<title>AppRoutingModule&#45;&gt;AppModule</title>
<path fill="none" stroke="black" d="M88,-122.29C88,-144.21 88,-178 88,-178 88,-178 465.08,-178 465.08,-178"/>
<polygon fill="black" stroke="black" points="465.08,-181.5 475.08,-178 465.08,-174.5 465.08,-181.5"/>
</g>
</g>
</svg>
