<?xml version="1.0" encoding="UTF-8" standalone="no"?>
<!DOCTYPE svg PUBLIC "-//W3C//DTD SVG 1.1//EN"
 "http://www.w3.org/Graphics/SVG/1.1/DTD/svg11.dtd">
<!-- Generated by graphviz version 2.47.0 (20210316.0004)
 -->
<!-- Title: dependencies Pages: 1 -->
<svg width="744pt" height="284pt"
 viewBox="0.00 0.00 744.00 284.00" xmlns="http://www.w3.org/2000/svg" xmlns:xlink="http://www.w3.org/1999/xlink">
<g id="graph0" class="graph" transform="scale(1 1) rotate(0) translate(4 280)">
<title>dependencies</title>
<polygon fill="white" stroke="transparent" points="-4,4 -4,-280 740,-280 740,4 -4,4"/>
<text text-anchor="start" x="347.01" y="-42.4" font-family="Times-12" font-weight="bold" font-size="14.00">Legend</text>
<polygon fill="#ffffb3" stroke="transparent" points="134,-10 134,-30 154,-30 154,-10 134,-10"/>
<text text-anchor="start" x="157.63" y="-15.4" font-family="Times-12" font-size="14.00"> &#160;Declarations</text>
<polygon fill="#8dd3c7" stroke="transparent" points="247,-10 247,-30 267,-30 267,-10 247,-10"/>
<text text-anchor="start" x="270.73" y="-15.4" font-family="Times-12" font-size="14.00"> &#160;Module</text>
<polygon fill="#80b1d3" stroke="transparent" points="333,-10 333,-30 353,-30 353,-10 333,-10"/>
<text text-anchor="start" x="356.78" y="-15.4" font-family="Times-12" font-size="14.00"> &#160;Bootstrap</text>
<polygon fill="#fdb462" stroke="transparent" points="430,-10 430,-30 450,-30 450,-10 430,-10"/>
<text text-anchor="start" x="453.67" y="-15.4" font-family="Times-12" font-size="14.00"> &#160;Providers</text>
<polygon fill="#fb8072" stroke="transparent" points="526,-10 526,-30 546,-30 546,-10 526,-10"/>
<text text-anchor="start" x="549.73" y="-15.4" font-family="Times-12" font-size="14.00"> &#160;Exports</text>
<g id="clust1" class="cluster">
<title>cluster_AppModule</title>
<polygon fill="none" stroke="black" stroke-dasharray="1,5" points="8,-70 8,-268 728,-268 728,-70 8,-70"/>
</g>
<g id="clust2" class="cluster">
<title>cluster_AppModule_declarations</title>
<polygon fill="none" stroke="black" points="168,-78 168,-130 720,-130 720,-78 168,-78"/>
</g>
<g id="clust7" class="cluster">
<title>cluster_AppModule_imports</title>
<polygon fill="none" stroke="black" points="16,-78 16,-130 160,-130 160,-78 16,-78"/>
</g>
<g id="clust9" class="cluster">
<title>cluster_AppModule_bootstrap</title>
<polygon fill="none" stroke="black" points="316,-208 316,-260 440,-260 440,-208 316,-208"/>
</g>
<!-- AppComponent -->
<g id="node1" class="node">
<title>AppComponent</title>
<polygon fill="#ffffb3" stroke="black" points="711.94,-122 606.06,-122 606.06,-86 711.94,-86 711.94,-122"/>
<text text-anchor="middle" x="659" y="-99.8" font-family="Times,serif" font-size="14.00">AppComponent</text>
</g>
<!-- AppModule -->
<g id="node5" class="node">
<title>AppModule</title>
<polygon fill="#8dd3c7" stroke="black" points="419.66,-187 416.66,-191 395.66,-191 392.66,-187 336.34,-187 336.34,-151 419.66,-151 419.66,-187"/>
<text text-anchor="middle" x="378" y="-164.8" font-family="Times,serif" font-size="14.00">AppModule</text>
</g>
<!-- AppComponent&#45;&gt;AppModule -->
<g id="edge1" class="edge">
<title>AppComponent&#45;&gt;AppModule</title>
<path fill="none" stroke="black" d="M659,-122.28C659,-143.32 659,-175 659,-175 659,-175 429.77,-175 429.77,-175"/>
<polygon fill="black" stroke="black" points="429.77,-171.5 419.77,-175 429.77,-178.5 429.77,-171.5"/>
</g>
<!-- MainTaskComponent -->
<g id="node2" class="node">
<title>MainTaskComponent</title>
<polygon fill="#ffffb3" stroke="black" points="588.09,-122 449.91,-122 449.91,-86 588.09,-86 588.09,-122"/>
<text text-anchor="middle" x="519" y="-99.8" font-family="Times,serif" font-size="14.00">MainTaskComponent</text>
</g>
<!-- MainTaskComponent&#45;&gt;AppModule -->
<g id="edge2" class="edge">
<title>MainTaskComponent&#45;&gt;AppModule</title>
<path fill="none" stroke="black" d="M519,-122.02C519,-139.37 519,-163 519,-163 519,-163 429.92,-163 429.92,-163"/>
<polygon fill="black" stroke="black" points="429.92,-159.5 419.92,-163 429.92,-166.5 429.92,-159.5"/>
</g>
<!-- TaskComponent -->
<g id="node3" class="node">
<title>TaskComponent</title>
<polygon fill="#ffffb3" stroke="black" points="432.05,-122 323.95,-122 323.95,-86 432.05,-86 432.05,-122"/>
<text text-anchor="middle" x="378" y="-99.8" font-family="Times,serif" font-size="14.00">TaskComponent</text>
</g>
<!-- TaskComponent&#45;&gt;AppModule -->
<g id="edge3" class="edge">
<title>TaskComponent&#45;&gt;AppModule</title>
<path fill="none" stroke="black" d="M378,-122.11C378,-122.11 378,-140.99 378,-140.99"/>
<polygon fill="black" stroke="black" points="374.5,-140.99 378,-150.99 381.5,-140.99 374.5,-140.99"/>
</g>
<!-- TaskListComponent -->
<g id="node4" class="node">
<title>TaskListComponent</title>
<polygon fill="#ffffb3" stroke="black" points="306.32,-122 175.68,-122 175.68,-86 306.32,-86 306.32,-122"/>
<text text-anchor="middle" x="241" y="-99.8" font-family="Times,serif" font-size="14.00">TaskListComponent</text>
</g>
<!-- TaskListComponent&#45;&gt;AppModule -->
<g id="edge4" class="edge">
<title>TaskListComponent&#45;&gt;AppModule</title>
<path fill="none" stroke="black" d="M241,-122.02C241,-139.37 241,-163 241,-163 241,-163 326.15,-163 326.15,-163"/>
<polygon fill="black" stroke="black" points="326.15,-166.5 336.15,-163 326.15,-159.5 326.15,-166.5"/>
</g>
<!-- AppComponent  -->
<g id="node7" class="node">
<title>AppComponent </title>
<polygon fill="#80b1d3" stroke="black" points="432.44,-252 323.56,-252 323.56,-216 432.44,-216 432.44,-252"/>
<text text-anchor="middle" x="378" y="-229.8" font-family="Times,serif" font-size="14.00">AppComponent </text>
</g>
<!-- AppModule&#45;&gt;AppComponent  -->
<g id="edge6" class="edge">
<title>AppModule&#45;&gt;AppComponent </title>
<path fill="none" stroke="black" stroke-dasharray="1,5" d="M378,-187.11C378,-187.11 378,-205.99 378,-205.99"/>
<polygon fill="black" stroke="black" points="374.5,-205.99 378,-215.99 381.5,-205.99 374.5,-205.99"/>
</g>
<!-- AppRoutingModule -->
<g id="node6" class="node">
<title>AppRoutingModule</title>
<polygon fill="#8dd3c7" stroke="black" points="152.27,-122 149.27,-126 128.27,-126 125.27,-122 23.73,-122 23.73,-86 152.27,-86 152.27,-122"/>
<text text-anchor="middle" x="88" y="-99.8" font-family="Times,serif" font-size="14.00">AppRoutingModule</text>
</g>
<!-- AppRoutingModule&#45;&gt;AppModule -->
<g id="edge5" class="edge">
<title>AppRoutingModule&#45;&gt;AppModule</title>
<path fill="none" stroke="black" d="M88,-122.28C88,-143.32 88,-175 88,-175 88,-175 326.14,-175 326.14,-175"/>
<polygon fill="black" stroke="black" points="326.14,-178.5 336.14,-175 326.14,-171.5 326.14,-178.5"/>
</g>
</g>
</svg>
