<?xml version="1.0" encoding="UTF-8" standalone="no"?>
<!DOCTYPE svg PUBLIC "-//W3C//DTD SVG 1.1//EN"
 "http://www.w3.org/Graphics/SVG/1.1/DTD/svg11.dtd">
<!-- Generated by graphviz version 2.47.0 (20210316.0004)
 -->
<!-- Title: dependencies Pages: 1 -->
<svg width="1380pt" height="360pt"
 viewBox="0.00 0.00 1380.00 360.00" xmlns="http://www.w3.org/2000/svg" xmlns:xlink="http://www.w3.org/1999/xlink">
<g id="graph0" class="graph" transform="scale(1 1) rotate(0) translate(4 356)">
<title>dependencies</title>
<polygon fill="white" stroke="transparent" points="-4,4 -4,-356 1376,-356 1376,4 -4,4"/>
<text text-anchor="start" x="665.01" y="-42.4" font-family="Times-12" font-weight="bold" font-size="14.00">Legend</text>
<polygon fill="#ffffb3" stroke="transparent" points="452,-10 452,-30 472,-30 472,-10 452,-10"/>
<text text-anchor="start" x="475.63" y="-15.4" font-family="Times-12" font-size="14.00"> &#160;Declarations</text>
<polygon fill="#8dd3c7" stroke="transparent" points="565,-10 565,-30 585,-30 585,-10 565,-10"/>
<text text-anchor="start" x="588.73" y="-15.4" font-family="Times-12" font-size="14.00"> &#160;Module</text>
<polygon fill="#80b1d3" stroke="transparent" points="651,-10 651,-30 671,-30 671,-10 651,-10"/>
<text text-anchor="start" x="674.78" y="-15.4" font-family="Times-12" font-size="14.00"> &#160;Bootstrap</text>
<polygon fill="#fdb462" stroke="transparent" points="748,-10 748,-30 768,-30 768,-10 748,-10"/>
<text text-anchor="start" x="771.67" y="-15.4" font-family="Times-12" font-size="14.00"> &#160;Providers</text>
<polygon fill="#fb8072" stroke="transparent" points="844,-10 844,-30 864,-30 864,-10 844,-10"/>
<text text-anchor="start" x="867.73" y="-15.4" font-family="Times-12" font-size="14.00"> &#160;Exports</text>
<g id="clust1" class="cluster">
<title>cluster_AddTaskFormModule</title>
<polygon fill="none" stroke="black" stroke-dasharray="1,5" points="8,-70 8,-206 202,-206 202,-70 8,-70"/>
</g>
<g id="clust2" class="cluster">
<title>cluster_AddTaskFormModule_declarations</title>
<polygon fill="none" stroke="black" points="16,-78 16,-130 194,-130 194,-78 16,-78"/>
</g>
<g id="clust8" class="cluster">
<title>cluster_AppModule</title>
<polygon fill="none" stroke="black" stroke-dasharray="1,5" points="754,-146 754,-344 1364,-344 1364,-146 754,-146"/>
</g>
<g id="clust9" class="cluster">
<title>cluster_AppModule_declarations</title>
<polygon fill="none" stroke="black" points="1024,-154 1024,-206 1356,-206 1356,-154 1024,-154"/>
</g>
<g id="clust12" class="cluster">
<title>cluster_AppModule_imports</title>
<polygon fill="none" stroke="black" points="762,-154 762,-206 1016,-206 1016,-154 762,-154"/>
</g>
<g id="clust14" class="cluster">
<title>cluster_AppModule_bootstrap</title>
<polygon fill="none" stroke="black" points="974,-284 974,-336 1098,-336 1098,-284 974,-284"/>
</g>
<g id="clust22" class="cluster">
<title>cluster_TasksModule</title>
<polygon fill="none" stroke="black" stroke-dasharray="1,5" points="210,-70 210,-138 1320,-138 1320,-70 210,-70"/>
</g>
<g id="clust23" class="cluster">
<title>cluster_TasksModule_declarations</title>
<polygon fill="none" stroke="black" points="606,-78 606,-130 1312,-130 1312,-78 606,-78"/>
</g>
<g id="clust29" class="cluster">
<title>cluster_TasksModule_imports</title>
<polygon fill="none" stroke="black" points="444,-78 444,-130 598,-130 598,-78 444,-78"/>
</g>
<g id="clust32" class="cluster">
<title>cluster_TasksModule_providers</title>
<polygon fill="none" stroke="black" points="218,-78 218,-130 436,-130 436,-78 218,-78"/>
</g>
<!-- AddTaskFormComponent -->
<g id="node1" class="node">
<title>AddTaskFormComponent</title>
<polygon fill="#ffffb3" stroke="black" points="186.48,-122 23.52,-122 23.52,-86 186.48,-86 186.48,-122"/>
<text text-anchor="middle" x="105" y="-99.8" font-family="Times,serif" font-size="14.00">AddTaskFormComponent</text>
</g>
<!-- AddTaskFormModule -->
<g id="node2" class="node">
<title>AddTaskFormModule</title>
<polygon fill="#8dd3c7" stroke="black" points="175.7,-198 172.7,-202 151.7,-202 148.7,-198 34.3,-198 34.3,-162 175.7,-162 175.7,-198"/>
<text text-anchor="middle" x="105" y="-175.8" font-family="Times,serif" font-size="14.00">AddTaskFormModule</text>
</g>
<!-- AddTaskFormComponent&#45;&gt;AddTaskFormModule -->
<g id="edge1" class="edge">
<title>AddTaskFormComponent&#45;&gt;AddTaskFormModule</title>
<path fill="none" stroke="black" d="M105,-122.01C105,-122.01 105,-151.85 105,-151.85"/>
<polygon fill="black" stroke="black" points="101.5,-151.85 105,-161.85 108.5,-151.85 101.5,-151.85"/>
</g>
<!-- AppComponent -->
<g id="node3" class="node">
<title>AppComponent</title>
<polygon fill="#ffffb3" stroke="black" points="1347.94,-198 1242.06,-198 1242.06,-162 1347.94,-162 1347.94,-198"/>
<text text-anchor="middle" x="1295" y="-175.8" font-family="Times,serif" font-size="14.00">AppComponent</text>
</g>
<!-- AppModule -->
<g id="node5" class="node">
<title>AppModule</title>
<polygon fill="#8dd3c7" stroke="black" points="1077.66,-263 1074.66,-267 1053.66,-267 1050.66,-263 994.34,-263 994.34,-227 1077.66,-227 1077.66,-263"/>
<text text-anchor="middle" x="1036" y="-240.8" font-family="Times,serif" font-size="14.00">AppModule</text>
</g>
<!-- AppComponent&#45;&gt;AppModule -->
<g id="edge2" class="edge">
<title>AppComponent&#45;&gt;AppModule</title>
<path fill="none" stroke="black" d="M1295,-198.11C1295,-217.34 1295,-245 1295,-245 1295,-245 1087.9,-245 1087.9,-245"/>
<polygon fill="black" stroke="black" points="1087.9,-241.5 1077.9,-245 1087.9,-248.5 1087.9,-241.5"/>
</g>
<!-- MainAddTaskFormComponent -->
<g id="node4" class="node">
<title>MainAddTaskFormComponent</title>
<polygon fill="#ffffb3" stroke="black" points="1224.03,-198 1031.97,-198 1031.97,-162 1224.03,-162 1224.03,-198"/>
<text text-anchor="middle" x="1128" y="-175.8" font-family="Times,serif" font-size="14.00">MainAddTaskFormComponent</text>
</g>
<!-- MainAddTaskFormComponent&#45;&gt;AppModule -->
<g id="edge3" class="edge">
<title>MainAddTaskFormComponent&#45;&gt;AppModule</title>
<path fill="none" stroke="black" d="M1054.78,-198.11C1054.78,-198.11 1054.78,-216.99 1054.78,-216.99"/>
<polygon fill="black" stroke="black" points="1051.28,-216.99 1054.78,-226.99 1058.28,-216.99 1051.28,-216.99"/>
</g>
<!-- AppComponent  -->
<g id="node8" class="node">
<title>AppComponent </title>
<polygon fill="#80b1d3" stroke="black" points="1090.44,-328 981.56,-328 981.56,-292 1090.44,-292 1090.44,-328"/>
<text text-anchor="middle" x="1036" y="-305.8" font-family="Times,serif" font-size="14.00">AppComponent </text>
</g>
<!-- AppModule&#45;&gt;AppComponent  -->
<g id="edge6" class="edge">
<title>AppModule&#45;&gt;AppComponent </title>
<path fill="none" stroke="black" stroke-dasharray="1,5" d="M1036,-263.11C1036,-263.11 1036,-281.99 1036,-281.99"/>
<polygon fill="black" stroke="black" points="1032.5,-281.99 1036,-291.99 1039.5,-281.99 1032.5,-281.99"/>
</g>
<!-- AppRoutingModule -->
<g id="node6" class="node">
<title>AppRoutingModule</title>
<polygon fill="#8dd3c7" stroke="black" points="1008.27,-198 1005.27,-202 984.27,-202 981.27,-198 879.73,-198 879.73,-162 1008.27,-162 1008.27,-198"/>
<text text-anchor="middle" x="944" y="-175.8" font-family="Times,serif" font-size="14.00">AppRoutingModule</text>
</g>
<!-- AppRoutingModule&#45;&gt;AppModule -->
<g id="edge4" class="edge">
<title>AppRoutingModule&#45;&gt;AppModule</title>
<path fill="none" stroke="black" d="M1001.28,-198.11C1001.28,-198.11 1001.28,-216.99 1001.28,-216.99"/>
<polygon fill="black" stroke="black" points="997.78,-216.99 1001.28,-226.99 1004.78,-216.99 997.78,-216.99"/>
</g>
<!-- TasksModule -->
<g id="node7" class="node">
<title>TasksModule</title>
<polygon fill="#8dd3c7" stroke="black" points="862.21,-198 859.21,-202 838.21,-202 835.21,-198 769.79,-198 769.79,-162 862.21,-162 862.21,-198"/>
<text text-anchor="middle" x="816" y="-175.8" font-family="Times,serif" font-size="14.00">TasksModule</text>
</g>
<!-- TasksModule&#45;&gt;AppModule -->
<g id="edge5" class="edge">
<title>TasksModule&#45;&gt;AppModule</title>
<path fill="none" stroke="black" d="M816,-198.11C816,-217.34 816,-245 816,-245 816,-245 984.1,-245 984.1,-245"/>
<polygon fill="black" stroke="black" points="984.1,-248.5 994.1,-245 984.1,-241.5 984.1,-248.5"/>
</g>
<!-- DateFormatPipe -->
<g id="node9" class="node">
<title>DateFormatPipe</title>
<polygon fill="#ffffb3" stroke="black" points="1303.75,-122 1196.25,-122 1196.25,-86 1303.75,-86 1303.75,-122"/>
<text text-anchor="middle" x="1250" y="-99.8" font-family="Times,serif" font-size="14.00">DateFormatPipe</text>
</g>
<!-- DateFormatPipe&#45;&gt;TasksModule -->
<g id="edge7" class="edge">
<title>DateFormatPipe&#45;&gt;TasksModule</title>
<path fill="none" stroke="black" d="M1210.2,-122.04C1210.2,-134.56 1210.2,-149 1210.2,-149 1210.2,-149 839.05,-149 839.05,-149 839.05,-149 839.05,-151.97 839.05,-151.97"/>
<polygon fill="black" stroke="black" points="835.55,-151.97 839.05,-161.97 842.55,-151.97 835.55,-151.97"/>
</g>
<!-- MainTaskComponent -->
<g id="node10" class="node">
<title>MainTaskComponent</title>
<polygon fill="#ffffb3" stroke="black" points="1178.09,-122 1039.91,-122 1039.91,-86 1178.09,-86 1178.09,-122"/>
<text text-anchor="middle" x="1109" y="-99.8" font-family="Times,serif" font-size="14.00">MainTaskComponent</text>
</g>
<!-- MainTaskComponent&#45;&gt;TasksModule -->
<g id="edge8" class="edge">
<title>MainTaskComponent&#45;&gt;TasksModule</title>
<path fill="none" stroke="black" d="M1109,-122.24C1109,-129.43 1109,-136 1109,-136 1109,-136 816,-136 816,-136 816,-136 816,-151.85 816,-151.85"/>
<polygon fill="black" stroke="black" points="812.5,-151.85 816,-161.85 819.5,-151.85 812.5,-151.85"/>
</g>
<!-- StatusColorDirective -->
<g id="node11" class="node">
<title>StatusColorDirective</title>
<polygon fill="#ffffb3" stroke="black" points="1022.19,-122 887.81,-122 887.81,-86 1022.19,-86 1022.19,-122"/>
<text text-anchor="middle" x="955" y="-99.8" font-family="Times,serif" font-size="14.00">StatusColorDirective</text>
</g>
<!-- StatusColorDirective&#45;&gt;TasksModule -->
<g id="edge9" class="edge">
<title>StatusColorDirective&#45;&gt;TasksModule</title>
<path fill="none" stroke="black" d="M887.81,-104C880.1,-104 874.94,-104 874.94,-104 874.94,-104 874.94,-180 874.94,-180 874.94,-180 872.15,-180 872.15,-180"/>
<polygon fill="black" stroke="black" points="872.15,-176.5 862.15,-180 872.15,-183.5 872.15,-176.5"/>
</g>
<!-- TaskComponent -->
<g id="node12" class="node">
<title>TaskComponent</title>
<polygon fill="#ffffb3" stroke="black" points="870.05,-122 761.95,-122 761.95,-86 870.05,-86 870.05,-122"/>
<text text-anchor="middle" x="816" y="-99.8" font-family="Times,serif" font-size="14.00">TaskComponent</text>
</g>
<!-- TaskComponent&#45;&gt;TasksModule -->
<g id="edge10" class="edge">
<title>TaskComponent&#45;&gt;TasksModule</title>
<path fill="none" stroke="black" d="M792.95,-122.01C792.95,-122.01 792.95,-151.85 792.95,-151.85"/>
<polygon fill="black" stroke="black" points="789.45,-151.85 792.95,-161.85 796.45,-151.85 789.45,-151.85"/>
</g>
<!-- TaskListComponent -->
<g id="node13" class="node">
<title>TaskListComponent</title>
<polygon fill="#ffffb3" stroke="black" points="744.32,-122 613.68,-122 613.68,-86 744.32,-86 744.32,-122"/>
<text text-anchor="middle" x="679" y="-99.8" font-family="Times,serif" font-size="14.00">TaskListComponent</text>
</g>
<!-- TaskListComponent&#45;&gt;TasksModule -->
<g id="edge11" class="edge">
<title>TaskListComponent&#45;&gt;TasksModule</title>
<path fill="none" stroke="black" d="M679,-122.31C679,-142.15 679,-171 679,-171 679,-171 759.62,-171 759.62,-171"/>
<polygon fill="black" stroke="black" points="759.62,-174.5 769.62,-171 759.62,-167.5 759.62,-174.5"/>
</g>
<!-- TasksRoutingModule -->
<g id="node14" class="node">
<title>TasksRoutingModule</title>
<polygon fill="#8dd3c7" stroke="black" points="589.82,-122 586.82,-126 565.82,-126 562.82,-122 452.18,-122 452.18,-86 589.82,-86 589.82,-122"/>
<text text-anchor="middle" x="521" y="-99.8" font-family="Times,serif" font-size="14.00">TasksRoutingModule</text>
</g>
<!-- TasksRoutingModule&#45;&gt;TasksModule -->
<g id="edge12" class="edge">
<title>TasksRoutingModule&#45;&gt;TasksModule</title>
<path fill="none" stroke="black" d="M521,-122.01C521,-144.49 521,-180 521,-180 521,-180 759.58,-180 759.58,-180"/>
<polygon fill="black" stroke="black" points="759.58,-183.5 769.58,-180 759.58,-176.5 759.58,-183.5"/>
</g>
<!-- CRUDTaskListService -->
<g id="node15" class="node">
<title>CRUDTaskListService</title>
<ellipse fill="#fdb462" stroke="black" cx="327" cy="-104" rx="100.72" ry="18"/>
<text text-anchor="middle" x="327" y="-99.8" font-family="Times,serif" font-size="14.00">CRUDTaskListService</text>
</g>
<!-- CRUDTaskListService&#45;&gt;TasksModule -->
<g id="edge13" class="edge">
<title>CRUDTaskListService&#45;&gt;TasksModule</title>
<path fill="none" stroke="black" d="M327,-122.03C327,-146.98 327,-189 327,-189 327,-189 759.56,-189 759.56,-189"/>
<polygon fill="black" stroke="black" points="759.56,-192.5 769.56,-189 759.56,-185.5 759.56,-192.5"/>
</g>
</g>
</svg>
